<?xml version="1.0" encoding="UTF-8"?>
<!DOCTYPE svg PUBLIC "-//W3C//DTD SVG 1.1//EN" "http://www.w3.org/Graphics/SVG/1.1/DTD/svg11.dtd">
<svg xmlns="http://www.w3.org/2000/svg" version="1.1" width="807px" height="807px" style="shape-rendering:geometricPrecision; text-rendering:geometricPrecision; image-rendering:optimizeQuality; fill-rule:evenodd; clip-rule:evenodd" xmlns:xlink="http://www.w3.org/1999/xlink">
<g><path style="opacity:1" fill="#000000" d="M 380.5,201.5 C 417.568,199.367 454.234,202.2 490.5,210C 499.519,212.006 508.186,215.006 516.5,219C 518.317,220.8 519.484,222.966 520,225.5C 520.5,262.165 520.667,298.832 520.5,335.5C 560.026,338.79 599.026,345.29 637.5,355C 648.764,357.899 659.764,361.565 670.5,366C 673.167,368 674.5,370.667 674.5,374C 670.509,393.122 666.842,412.288 663.5,431.5C 673.506,431.334 683.506,431.5 693.5,432C 699.444,432.611 703.277,435.777 705,441.5C 708.4,451.711 712.566,461.545 717.5,471C 725.929,471.762 734.263,473.095 742.5,475C 744.624,476.122 746.457,477.622 748,479.5C 768.213,514.589 786.879,550.589 804,587.5C 806.705,594.6 804.539,599.767 797.5,603C 794.833,603.667 792.167,603.667 789.5,603C 683.197,568.135 574.864,559.802 464.5,578C 461.756,578.803 459.089,579.803 456.5,581C 430.552,601.019 402.886,603.686 373.5,589C 365.781,581.416 356.448,577.083 345.5,576C 253.069,563.461 161.402,567.794 70.5,589C 51.505,593.999 32.505,598.832 13.5,603.5C 2.741,602.67 -1.09234,597.003 2,586.5C 20,542.5 38,498.5 56,454.5C 59.3356,451.831 63.1689,450.331 67.5,450C 73.8333,449.667 80.1667,449.333 86.5,449C 90.192,438.925 93.692,428.758 97,418.5C 98.3767,416.246 99.8767,414.08 101.5,412C 114.067,410.539 126.734,410.039 139.5,410.5C 135.662,391.479 131.662,372.479 127.5,353.5C 127.249,349.497 128.916,346.664 132.5,345C 156.662,336.793 181.329,330.459 206.5,326C 237.076,320.799 267.743,316.299 298.5,312.5C 298.333,283.831 298.5,255.165 299,226.5C 299.615,221.217 302.449,217.717 307.5,216C 331.445,208.511 355.778,203.678 380.5,201.5 Z"/></g>
<g><path style="opacity:1" fill="#f9faf9" d="M 383.5,209.5 C 419.243,207.479 454.576,210.312 489.5,218C 497.071,219.523 504.237,222.023 511,225.5C 510.929,263.855 511.096,302.189 511.5,340.5C 563.846,345.969 615.179,356.302 665.5,371.5C 661.372,394.141 657.372,416.808 653.5,439.5C 666.827,438.693 680.16,438.526 693.5,439C 695.259,440.008 696.426,441.508 697,443.5C 701.094,454.851 705.594,466.018 710.5,477C 719.807,478.52 729.14,479.853 738.5,481C 739.308,481.308 739.975,481.808 740.5,482.5C 760.411,517.775 779.078,553.775 796.5,590.5C 795.667,590.833 794.833,591.167 794,591.5C 693.229,556.757 590.062,546.59 484.5,561C 474.288,562.442 464.288,564.776 454.5,568C 433.548,586.615 409.882,590.949 383.5,581C 377.307,577.738 371.64,573.738 366.5,569C 341.67,561.862 316.337,557.528 290.5,556C 194.841,550.457 101.508,562.624 10.5,592.5C 12.4082,584.673 14.9082,577.007 18,569.5C 33.1667,532.5 48.3333,495.5 63.5,458.5C 73.4793,457.072 83.4793,455.739 93.5,454.5C 97.5463,442.192 101.88,430.025 106.5,418C 121.518,417.989 136.518,417.822 151.5,417.5C 145.701,395.646 140.868,373.646 137,351.5C 161.052,343.695 185.552,337.529 210.5,333C 242.906,328.157 275.24,322.99 307.5,317.5C 308.167,286.5 308.833,255.5 309.5,224.5C 320.162,220.25 331.162,217.084 342.5,215C 356.241,212.606 369.908,210.773 383.5,209.5 Z"/></g>
<g><path style="opacity:1" fill="#000000" d="M 390.5,215.5 C 421.14,214.442 451.473,216.942 481.5,223C 488.668,224.667 495.668,226.834 502.5,229.5C 503.408,268.833 503.574,308.166 503,347.5C 546.402,350.51 589.235,357.344 631.5,368C 640.285,370.093 648.618,373.26 656.5,377.5C 652.185,400.058 648.518,422.725 645.5,445.5C 660.5,445.5 675.5,445.5 690.5,445.5C 694.816,458.295 699.816,470.795 705.5,483C 715.414,484.285 725.247,485.785 735,487.5C 751.74,517.146 767.574,547.312 782.5,578C 674.418,540.429 564.418,533.762 452.5,558C 469.85,550.663 487.85,545.33 506.5,542C 594.157,528.15 680.324,534.65 765,561.5C 765.5,561.333 766,561.167 766.5,561C 764.039,556.579 761.706,552.079 759.5,547.5C 743.294,541.448 726.627,536.948 709.5,534C 652.397,524.679 595.063,523.013 537.5,529C 509.48,532.753 482.48,539.753 456.5,550C 476.234,540.422 496.9,533.422 518.5,529C 597.452,513.18 675.785,515.514 753.5,536C 745.539,521.246 737.706,506.412 730,491.5C 723.976,489.281 717.809,488.615 711.5,489.5C 715.306,498.446 719.639,507.112 724.5,515.5C 724,515.833 723.5,516.167 723,516.5C 660.551,504.674 598.051,504.508 535.5,516C 499.902,522.194 466.902,534.861 436.5,554C 434.981,555.351 433.648,556.851 432.5,558.5C 438.76,560.883 439.094,564.049 433.5,568C 422.757,573.232 411.424,574.899 399.5,573C 395.363,572.066 391.363,570.732 387.5,569C 381.163,565.964 380.83,562.297 386.5,558C 383.823,554.991 380.823,552.324 377.5,550C 346.305,533.612 313.305,522.279 278.5,516C 228.112,507.205 177.445,505.205 126.5,510C 110.962,511.339 95.6282,513.839 80.5,517.5C 84.1753,500.607 88.8419,483.774 94.5,467C 94.1667,466.5 93.8333,466 93.5,465.5C 86.9216,466.144 80.4216,467.144 74,468.5C 65.8883,491.505 57.3883,514.338 48.5,537C 115.561,520.079 183.561,515.079 252.5,522C 290.711,526.052 327.377,535.719 362.5,551C 323.216,536.676 282.549,528.342 240.5,526C 181.784,522.901 123.784,527.901 66.5,541C 58.7021,542.933 51.0354,545.266 43.5,548C 41.3683,552.723 39.8683,557.556 39,562.5C 124.498,535.425 211.665,528.258 300.5,541C 323.095,544.482 345.095,550.148 366.5,558C 261.825,537.154 157.825,540.488 54.5,568C 43.6038,571.519 32.9371,575.186 22.5,579C 37.6859,540.792 53.0192,502.625 68.5,464.5C 78.7681,462.915 89.1015,461.748 99.5,461C 103.396,449.146 107.396,437.313 111.5,425.5C 127.828,424.52 144.161,424.52 160.5,425.5C 156.134,402.702 151.134,380.035 145.5,357.5C 171.838,348.332 198.838,341.499 226.5,337C 256.086,332.472 285.753,328.639 315.5,325.5C 315.303,293.489 315.803,261.489 317,229.5C 326.899,225.816 337.066,222.983 347.5,221C 361.915,218.629 376.248,216.796 390.5,215.5 Z"/></g>
<g><path style="opacity:1" fill="#f9faf9" d="M 400.5,220.5 C 424.393,220.244 448.06,222.411 471.5,227C 479.186,228.629 486.686,230.795 494,233.5C 494.386,314.847 493.386,396.181 491,477.5C 458.866,488.391 431.866,506.724 410,532.5C 398.327,516.495 383.827,503.662 366.5,494C 355.614,488.823 344.781,483.656 334,478.5C 327.49,408.481 323.99,338.315 323.5,268C 323.51,256.789 323.844,245.623 324.5,234.5C 335.426,230.1 346.759,226.934 358.5,225C 372.567,222.655 386.567,221.155 400.5,220.5 Z"/></g>
<g><path style="opacity:1" fill="#000000" d="M 411.5,242.5 C 414.5,242.5 417.5,242.5 420.5,242.5C 420.333,272.835 420.5,303.168 421,333.5C 421.5,335.333 422.667,336.5 424.5,337C 428.084,338.073 431.75,338.74 435.5,339C 436.444,341.719 436.777,344.552 436.5,347.5C 418.833,347.5 401.167,347.5 383.5,347.5C 383.187,344.753 383.52,342.086 384.5,339.5C 388.19,338.806 391.857,337.972 395.5,337C 397.049,335.786 398.215,334.286 399,332.5C 399.667,310.5 399.667,288.5 399,266.5C 397.741,263.783 395.574,262.45 392.5,262.5C 389.301,262.9 386.301,263.9 383.5,265.5C 382.345,262.554 382.179,259.554 383,256.5C 393.68,254.076 403.18,249.41 411.5,242.5 Z"/></g>
<g><path style="opacity:1" fill="#000000" d="M 365.5,255.5 C 366.822,255.33 367.989,255.663 369,256.5C 370.214,263.858 368.048,270.024 362.5,275C 360.975,276.009 359.308,276.509 357.5,276.5C 355.463,267.649 358.129,260.649 365.5,255.5 Z"/></g>
<g><path style="opacity:1" fill="#000000" d="M 451.5,255.5 C 455.791,256.236 458.958,258.569 461,262.5C 463.145,267.037 463.645,271.704 462.5,276.5C 458.862,276.262 456.029,274.596 454,271.5C 451.143,266.4 450.31,261.067 451.5,255.5 Z"/></g>
<g><path style="opacity:1" fill="#000000" d="M 347.5,266.5 C 348.75,266.577 349.583,267.244 350,268.5C 352.638,276.278 351.305,283.278 346,289.5C 339.882,281.499 340.382,273.832 347.5,266.5 Z"/></g>
<g><path style="opacity:1" fill="#000000" d="M 470.5,267.5 C 474.484,269.005 476.984,272.005 478,276.5C 479.332,281.595 478.165,285.928 474.5,289.5C 468.444,283.07 467.111,275.736 470.5,267.5 Z"/></g>
<g><path style="opacity:1" fill="#000000" d="M 364.5,279.5 C 366.604,279.201 368.604,279.534 370.5,280.5C 367.596,290.099 361.262,294.433 351.5,293.5C 353.822,286.849 358.155,282.182 364.5,279.5 Z"/></g>
<g><path style="opacity:1" fill="#000000" d="M 451.5,279.5 C 460.752,280.439 466.085,285.439 467.5,294.5C 460.628,293.981 455.128,290.981 451,285.5C 450.322,283.402 450.489,281.402 451.5,279.5 Z"/></g>
<g><path style="opacity:1" fill="#000000" d="M 334.5,285.5 C 336.017,285.511 337.184,286.177 338,287.5C 342.725,293.769 343.558,300.436 340.5,307.5C 333.643,303.453 331.143,297.453 333,289.5C 333.41,288.099 333.91,286.766 334.5,285.5 Z"/></g>
<g><path style="opacity:1" fill="#000000" d="M 481.5,286.5 C 482.822,286.33 483.989,286.663 485,287.5C 488.915,295.507 487.581,302.507 481,308.5C 478.719,305.937 477.552,302.937 477.5,299.5C 478.034,294.9 479.367,290.567 481.5,286.5 Z"/></g>
<g><path style="opacity:1" fill="#000000" d="M 357.5,298.5 C 359.144,298.286 360.644,298.62 362,299.5C 361.14,308.195 356.307,313.195 347.5,314.5C 347.089,310.537 347.922,306.87 350,303.5C 352.479,301.686 354.979,300.019 357.5,298.5 Z"/></g>
<g><path style="opacity:1" fill="#000000" d="M 458.5,298.5 C 469.033,298.699 474.033,304.032 473.5,314.5C 464.422,313.023 459.422,307.69 458.5,298.5 Z"/></g>
<g><path style="opacity:1" fill="#000000" d="M 331.5,310.5 C 338.745,313.459 342.411,318.959 342.5,327C 342.167,328.5 341.833,330 341.5,331.5C 332.434,327.329 329.101,320.329 331.5,310.5 Z"/></g>
<g><path style="opacity:1" fill="#000000" d="M 487.5,310.5 C 491.52,320.158 488.52,327.158 478.5,331.5C 476.837,322.494 479.837,315.494 487.5,310.5 Z"/></g>
<g><path style="opacity:1" fill="#000000" d="M 354.5,317.5 C 356.411,317.574 357.578,318.574 358,320.5C 359.266,327.879 356.766,333.545 350.5,337.5C 346.961,329.774 348.294,323.108 354.5,317.5 Z"/></g>
<g><path style="opacity:1" fill="#000000" d="M 462.5,317.5 C 469.254,320.671 472.087,326.004 471,333.5C 470.804,335.286 469.971,336.619 468.5,337.5C 461.706,332.357 459.706,325.691 462.5,317.5 Z"/></g>
<g><path style="opacity:1" fill="#f9faf9" d="M 311.5,331.5 C 312.5,331.5 313.5,331.5 314.5,331.5C 315.653,379.449 318.653,427.282 323.5,475C 323.167,475.833 322.833,476.667 322.5,477.5C 303.83,471.866 284.83,467.699 265.5,465C 236.93,461.175 208.263,458.342 179.5,456.5C 170.723,424.674 162.057,392.84 153.5,361C 176.618,353.106 200.285,347.106 224.5,343C 253.572,338.606 282.572,334.773 311.5,331.5 Z"/></g>
<g><path style="opacity:1" fill="#000000" d="M 483.5,336.5 C 486.377,344.562 483.377,350.062 474.5,353C 472.527,353.495 470.527,353.662 468.5,353.5C 470.327,345.008 475.327,339.342 483.5,336.5 Z"/></g>
<g><path style="opacity:1" fill="#000000" d="M 336.5,337.5 C 345.542,338.88 350.542,344.213 351.5,353.5C 342.92,353.388 337.587,349.221 335.5,341C 335.648,339.744 335.982,338.577 336.5,337.5 Z"/></g>
<g><path style="opacity:1" fill="#000000" d="M 359.5,337.5 C 361.017,337.511 362.184,338.177 363,339.5C 366.883,345.314 367.383,351.314 364.5,357.5C 359.204,355.087 356.538,350.921 356.5,345C 356.828,342.171 357.828,339.671 359.5,337.5 Z"/></g>
<g><path style="opacity:1" fill="#000000" d="M 457.5,337.5 C 461.092,339.51 462.758,342.677 462.5,347C 462.612,351.612 460.779,355.112 457,357.5C 454.09,355.738 452.924,353.071 453.5,349.5C 453.693,345.115 455.027,341.115 457.5,337.5 Z"/></g>
<g><path style="opacity:1" fill="#000000" d="M 229.5,351.5 C 235.842,351.334 242.175,351.5 248.5,352C 261.697,356.902 265.864,366.069 261,379.5C 253.5,389.667 244.667,398.5 234.5,406C 242.493,406.5 250.493,406.666 258.5,406.5C 258.963,403.518 259.296,400.518 259.5,397.5C 263.5,397.5 267.5,397.5 271.5,397.5C 271.5,404.167 271.5,410.833 271.5,417.5C 252.167,417.5 232.833,417.5 213.5,417.5C 213.336,414.813 213.503,412.146 214,409.5C 223.97,400.53 233.637,391.197 243,381.5C 250.231,367.442 246.065,360.942 230.5,362C 224.678,364.139 222.345,368.305 223.5,374.5C 220.183,375.221 216.849,375.388 213.5,375C 209.386,367.968 210.719,361.968 217.5,357C 221.481,354.838 225.481,353.005 229.5,351.5 Z"/></g>
<g><path style="opacity:1" fill="#f9faf9" d="M 504.5,353.5 C 552.254,355.515 598.921,363.681 644.5,378C 645.658,379.009 646.325,380.342 646.5,382C 642.326,407.214 637.992,432.38 633.5,457.5C 606.101,458.774 578.768,460.941 551.5,464C 534.639,466.672 517.972,470.172 501.5,474.5C 502.36,434.173 503.36,393.84 504.5,353.5 Z"/></g>
<g><path style="opacity:1" fill="#000000" d="M 443.5,354.5 C 445.124,354.36 446.29,355.027 447,356.5C 448.859,364.796 445.693,369.796 437.5,371.5C 437.335,368.15 437.502,364.817 438,361.5C 439.666,359.004 441.5,356.671 443.5,354.5 Z"/></g>
<g><path style="opacity:1" fill="#000000" d="M 373.5,355.5 C 381.39,357.879 384.39,363.046 382.5,371C 376.023,370.687 372.689,367.187 372.5,360.5C 372.592,358.742 372.925,357.076 373.5,355.5 Z"/></g>
<g><path style="opacity:1" fill="#000000" d="M 348.5,359.5 C 357.244,359.536 363.91,363.202 368.5,370.5C 360.158,373.888 353.325,371.888 348,364.5C 347.36,362.735 347.527,361.068 348.5,359.5 Z"/></g>
<g><path style="opacity:1" fill="#000000" d="M 467.5,359.5 C 469.527,359.338 471.527,359.505 473.5,360C 474.447,363.791 473.114,366.791 469.5,369C 463.987,372.735 458.321,373.235 452.5,370.5C 455.937,364.623 460.937,360.956 467.5,359.5 Z"/></g>
<g><path style="opacity:1" fill="#000000" d="M 391.5,367.5 C 400.058,367.899 404.892,372.233 406,380.5C 396.702,381.377 391.869,377.044 391.5,367.5 Z"/></g>
<g><path style="opacity:1" fill="#000000" d="M 424.5,367.5 C 426.167,367.5 427.833,367.5 429.5,367.5C 428.983,376.931 423.983,381.598 414.5,381.5C 415.089,374.906 418.422,370.239 424.5,367.5 Z"/></g>
<g><path style="opacity:1" fill="#000000" d="M 567.5,371.5 C 578.803,370.488 588.803,373.488 597.5,380.5C 602.947,389.793 600.947,396.96 591.5,402C 603.326,406.823 607.16,415.323 603,427.5C 600.013,431.488 596.18,434.321 591.5,436C 579.632,439.431 567.965,438.764 556.5,434C 552.817,432.159 549.484,429.826 546.5,427C 549.349,423.984 552.349,421.15 555.5,418.5C 560.578,424.206 566.911,427.539 574.5,428.5C 583.882,428.293 588.048,423.626 587,414.5C 584.688,410.42 581.188,407.92 576.5,407C 572.855,406.281 569.188,405.781 565.5,405.5C 565.5,403.167 565.5,400.833 565.5,398.5C 572.055,399.366 578.055,398.033 583.5,394.5C 587.26,385.712 584.26,381.379 574.5,381.5C 568.38,380.893 564.047,383.393 561.5,389C 552.795,391.129 549.795,387.963 552.5,379.5C 556.874,375.482 561.874,372.815 567.5,371.5 Z"/></g>
<g><path style="opacity:1" fill="#000000" d="M 373.5,375.5 C 378.161,375.749 382.494,377.082 386.5,379.5C 387.583,380.365 387.749,381.365 387,382.5C 378.869,386.87 371.369,386.037 364.5,380C 367.063,377.472 370.063,375.972 373.5,375.5 Z"/></g>
<g><path style="opacity:1" fill="#000000" d="M 444.5,375.5 C 460.388,378.529 460.388,381.862 444.5,385.5C 428.604,381.974 428.604,378.641 444.5,375.5 Z"/></g>
<g><path style="opacity:1" fill="#000000" d="M 397.5,384.5 C 402.479,383.65 404.479,385.483 403.5,390C 398.485,392.518 393.319,393.018 388,391.5C 387.911,389.887 388.745,388.72 390.5,388C 392.925,386.787 395.259,385.621 397.5,384.5 Z"/></g>
<g><path style="opacity:1" fill="#000000" d="M 418.5,384.5 C 424.264,384.547 429.264,386.547 433.5,390.5C 433.291,391.086 432.957,391.586 432.5,392C 428.406,392.767 424.406,392.434 420.5,391C 416.403,389.562 415.736,387.396 418.5,384.5 Z"/></g>
<g><path style="opacity:1" fill="#f9faf9" d="M 120.5,428.5 C 133.162,429.025 145.829,429.525 158.5,430C 162.065,442.092 165.398,454.258 168.5,466.5C 209.897,466.118 250.897,469.952 291.5,478C 321.857,483.856 349.857,495.19 375.5,512C 382.302,517.801 388.802,523.968 395,530.5C 400.008,537.003 405.174,543.336 410.5,549.5C 431.114,518.738 459.114,497.571 494.5,486C 534.603,472.937 575.77,466.771 618,467.5C 627.492,468.111 636.992,468.444 646.5,468.5C 647.266,462.834 648.099,457.168 649,451.5C 649.5,451 650,450.5 650.5,450C 661.828,449.5 673.162,449.333 684.5,449.5C 690.773,468.35 697.273,487.017 704,505.5C 633.301,494.099 563.801,499.266 495.5,521C 479.212,526.645 463.545,533.645 448.5,542C 435.563,550.716 422.729,559.549 410,568.5C 371.395,538.624 327.895,519.124 279.5,510C 219.749,498.029 159.749,496.529 99.5,505.5C 105.723,479.605 112.723,453.938 120.5,428.5 Z"/></g>
</svg>
